<?xml version="1.0" encoding="UTF-8"?>
<!DOCTYPE svg PUBLIC "-//W3C//DTD SVG 1.1//EN" "http://www.w3.org/Graphics/SVG/1.1/DTD/svg11.dtd">
<svg xmlns="http://www.w3.org/2000/svg" version="1.1" width="400px" height="400px" style="shape-rendering:geometricPrecision; text-rendering:geometricPrecision; image-rendering:optimizeQuality; fill-rule:evenodd; clip-rule:evenodd" xmlns:xlink="http://www.w3.org/1999/xlink">
<g><path style="opacity:0.997" fill="#fabeb5" d="M 67.5,-0.5 C 155.5,-0.5 243.5,-0.5 331.5,-0.5C 368.953,7.95308 391.62,30.9531 399.5,68.5C 399.5,155.833 399.5,243.167 399.5,330.5C 391.5,368.5 368.5,391.5 330.5,399.5C 242.833,399.5 155.167,399.5 67.5,399.5C 30.5,391.167 7.83333,368.5 -0.5,331.5C -0.5,243.5 -0.5,155.5 -0.5,67.5C 7.83333,30.5 30.5,7.83333 67.5,-0.5 Z M 77.5,39.5 C 158.834,39.3333 240.167,39.5 321.5,40C 343.333,43.1667 355.833,55.6667 359,77.5C 359.667,158.833 359.667,240.167 359,321.5C 355.833,343.333 343.333,355.833 321.5,359C 240.167,359.667 158.833,359.667 77.5,359C 55.6667,355.833 43.1667,343.333 40,321.5C 39.3333,240.167 39.3333,158.833 40,77.5C 43.3454,55.6552 55.8454,42.9886 77.5,39.5 Z"/></g>
<g><path style="opacity:0.988" fill="#fabeb5" d="M 135.5,98.5 C 143.05,97.9609 149.55,100.294 155,105.5C 169.346,130.203 184.179,154.536 199.5,178.5C 213.903,155.369 228.07,132.036 242,108.5C 250.927,98.4248 261.093,96.9248 272.5,104C 279.907,111.774 281.407,120.607 277,130.5C 257.748,162.001 238.748,193.668 220,225.5C 219.667,245.5 219.333,265.5 219,285.5C 212.733,299.15 202.567,302.983 188.5,297C 184.512,294.013 181.679,290.18 180,285.5C 179.667,265.5 179.333,245.5 179,225.5C 159.333,192.5 139.667,159.5 120,126.5C 116.597,112.298 121.764,102.965 135.5,98.5 Z"/></g>
</svg>
