<?xml version="1.0" encoding="UTF-8"?>
<!DOCTYPE svg PUBLIC "-//W3C//DTD SVG 1.1//EN" "http://www.w3.org/Graphics/SVG/1.1/DTD/svg11.dtd">
<svg xmlns="http://www.w3.org/2000/svg" version="1.1" width="100px" height="100px" style="shape-rendering:geometricPrecision; text-rendering:geometricPrecision; image-rendering:optimizeQuality; fill-rule:evenodd; clip-rule:evenodd" xmlns:xlink="http://www.w3.org/1999/xlink">
<g><path style="opacity:1" fill="#bed0ee" d="M 56.5,-0.5 C 70.8333,-0.5 85.1667,-0.5 99.5,-0.5C 99.5,14.5 99.5,29.5 99.5,44.5C 97.0872,42.9493 94.4206,42.2826 91.5,42.5C 90.5985,38.7593 91.9319,36.7593 95.5,36.5C 94.8505,34.5229 94.8505,32.6895 95.5,31C 95.3699,29.9412 94.8699,29.1079 94,28.5C 93.4494,32.7178 91.1161,35.3845 87,36.5C 85.806,34.4746 84.306,34.1413 82.5,35.5C 81.8332,40.9853 81.1665,46.3187 80.5,51.5C 80.6655,47.4862 80.4988,43.4862 80,39.5C 79.7216,38.5842 79.2216,37.9175 78.5,37.5C 77.1667,36.8333 77.1667,36.1667 78.5,35.5C 83.1015,33.3967 86.1015,29.8967 87.5,25C 87.6134,23.3009 86.9468,22.1342 85.5,21.5C 84.5081,19.9735 83.0081,19.3068 81,19.5C 78.7794,19.3932 76.9461,20.0598 75.5,21.5C 73.7772,23.2181 71.7772,24.5514 69.5,25.5C 65.1396,29.8195 64.1396,29.4862 66.5,24.5C 70.0056,21.9451 70.339,18.9451 67.5,15.5C 66.3112,14.5713 64.9778,14.238 63.5,14.5C 62.6126,13.0384 61.6126,11.205 60.5,9C 61.1667,7.66667 62.1667,6.66667 63.5,6C 61.5795,4.8777 59.5795,4.04436 57.5,3.5C 57.5674,2.04125 57.2341,0.707917 56.5,-0.5 Z"/></g>
<g><path style="opacity:1" fill="#c2d2ec" d="M 29.5,5.5 C 27.822,6.7471 26.4887,8.41376 25.5,10.5C 26.3333,12.1667 27.1667,13.8333 28,15.5C 29.5445,14.1787 30.7112,14.5121 31.5,16.5C 28.9066,18.0708 27.9066,20.4041 28.5,23.5C 31.1438,22.0753 33.8105,21.4086 36.5,21.5C 37.8568,24.527 37.5235,27.3603 35.5,30C 36.9767,33.0939 38.3101,35.5939 39.5,37.5C 43.5274,37.7192 44.1941,36.5525 41.5,34C 42.7932,33.51 44.1266,33.3433 45.5,33.5C 45.3822,36.6883 44.5489,39.6883 43,42.5C 42.3292,41.7476 41.4959,41.4142 40.5,41.5C 38.8207,40.0837 37.1541,38.7503 35.5,37.5C 33.22,35.7773 30.5533,35.1107 27.5,35.5C 27.5,36.8333 27.5,38.1667 27.5,39.5C 24.8037,42.9215 23.4703,46.9215 23.5,51.5C 22.1667,51.8333 20.8333,52.1667 19.5,52.5C 20.1144,48.9934 20.9477,45.66 22,42.5C 20.4933,41.4954 19.3267,40.162 18.5,38.5C 15.7328,40.1158 13.7328,39.4491 12.5,36.5C 14.4747,35.4221 16.308,35.7554 18,37.5C 18.3742,36.5838 18.8742,35.7504 19.5,35C 17.2236,33.9698 16.5569,32.4698 17.5,30.5C 18.3857,31.325 18.719,32.325 18.5,33.5C 27.2993,33.3758 27.6327,31.7092 19.5,28.5C 18.7542,27.2638 18.4208,25.9305 18.5,24.5C 17.1667,24.5 15.8333,24.5 14.5,24.5C 14.5,26.1667 14.5,27.8333 14.5,29.5C 11.4503,30.0768 9.45025,28.9101 8.5,26C 9.44802,25.5172 10.448,25.3505 11.5,25.5C 11.8134,22.7531 11.48,20.0865 10.5,17.5C 8.45654,20.1997 6.78988,20.033 5.5,17C 5.6448,16.228 5.97814,15.5613 6.5,15C 8.16667,14.6667 9.83333,14.3333 11.5,14C 8.83333,11.6667 8.83333,9.33333 11.5,7C 9.3462,5.81625 9.67954,4.64958 12.5,3.5C 13.086,3.70931 13.586,4.04265 14,4.5C 13.9227,3.26236 14.0894,2.26236 14.5,1.5C 16.6484,2.75847 18.8151,2.75847 21,1.5C 22.2613,1.75908 23.2613,2.42575 24,3.5C 24.414,3.04265 24.914,2.70931 25.5,2.5C 27.1151,3.15402 28.7818,3.65402 30.5,4C 29.944,4.38258 29.6107,4.88258 29.5,5.5 Z"/></g>
<g><path style="opacity:1" fill="#c0ceed" d="M 27.5,-0.5 C 37.1667,-0.5 46.8333,-0.5 56.5,-0.5C 57.2341,0.707917 57.5674,2.04125 57.5,3.5C 59.5795,4.04436 61.5795,4.8777 63.5,6C 62.1667,6.66667 61.1667,7.66667 60.5,9C 61.6126,11.205 62.6126,13.0384 63.5,14.5C 61.8333,14.5 60.1667,14.5 58.5,14.5C 58.5,15.5 58.5,16.5 58.5,17.5C 54.432,21.2389 51.0986,25.5722 48.5,30.5C 47.2719,31.3065 46.2719,32.3065 45.5,33.5C 44.1266,33.3433 42.7932,33.51 41.5,34C 44.1941,36.5525 43.5274,37.7192 39.5,37.5C 38.3101,35.5939 36.9767,33.0939 35.5,30C 37.5235,27.3603 37.8568,24.527 36.5,21.5C 33.8105,21.4086 31.1438,22.0753 28.5,23.5C 27.9066,20.4041 28.9066,18.0708 31.5,16.5C 30.7112,14.5121 29.5445,14.1787 28,15.5C 27.1667,13.8333 26.3333,12.1667 25.5,10.5C 26.4887,8.41376 27.822,6.7471 29.5,5.5C 30.9217,5.29142 32.255,4.79142 33.5,4C 32.2866,2.18861 30.2866,0.688607 27.5,-0.5 Z"/></g>
<g><path style="opacity:1" fill="#bed0ee" d="M -0.5,-0.5 C 8.83333,-0.5 18.1667,-0.5 27.5,-0.5C 30.2866,0.688607 32.2866,2.18861 33.5,4C 32.255,4.79142 30.9217,5.29142 29.5,5.5C 29.6107,4.88258 29.944,4.38258 30.5,4C 28.7818,3.65402 27.1151,3.15402 25.5,2.5C 24.914,2.70931 24.414,3.04265 24,3.5C 23.2613,2.42575 22.2613,1.75908 21,1.5C 18.8151,2.75847 16.6484,2.75847 14.5,1.5C 14.0894,2.26236 13.9227,3.26236 14,4.5C 13.586,4.04265 13.086,3.70931 12.5,3.5C 9.67954,4.64958 9.3462,5.81625 11.5,7C 8.83333,9.33333 8.83333,11.6667 11.5,14C 9.83333,14.3333 8.16667,14.6667 6.5,15C 5.97814,15.5613 5.6448,16.228 5.5,17C 6.78988,20.033 8.45654,20.1997 10.5,17.5C 11.48,20.0865 11.8134,22.7531 11.5,25.5C 10.448,25.3505 9.44802,25.5172 8.5,26C 9.45025,28.9101 11.4503,30.0768 14.5,29.5C 14.5,27.8333 14.5,26.1667 14.5,24.5C 15.8333,24.5 17.1667,24.5 18.5,24.5C 18.4208,25.9305 18.7542,27.2638 19.5,28.5C 27.6327,31.7092 27.2993,33.3758 18.5,33.5C 18.719,32.325 18.3857,31.325 17.5,30.5C 16.5569,32.4698 17.2236,33.9698 19.5,35C 18.8742,35.7504 18.3742,36.5838 18,37.5C 16.308,35.7554 14.4747,35.4221 12.5,36.5C 13.7328,39.4491 15.7328,40.1158 18.5,38.5C 19.3267,40.162 20.4933,41.4954 22,42.5C 20.9477,45.66 20.1144,48.9934 19.5,52.5C 18.3065,52.0296 17.6399,51.0296 17.5,49.5C 17.8396,47.4878 18.1729,45.4878 18.5,43.5C 13.3839,44.0657 12.3839,46.399 15.5,50.5C 14.8108,52.444 14.3108,54.444 14,56.5C 13.6924,55.6919 13.1924,55.0253 12.5,54.5C 11.5713,55.6888 11.238,57.0222 11.5,58.5C 9.33366,58.4211 7.33366,57.7545 5.5,56.5C 3.83333,56.8333 2.83333,57.8333 2.5,59.5C 4.40115,60.2309 6.40115,60.2309 8.5,59.5C 8.5,61.5 8.5,63.5 8.5,65.5C 5.66718,65.8336 2.66718,65.8336 -0.5,65.5C -0.5,43.5 -0.5,21.5 -0.5,-0.5 Z"/></g>
<g><path style="opacity:1" fill="#949299" d="M 63.5,14.5 C 64.9778,14.238 66.3112,14.5713 67.5,15.5C 70.339,18.9451 70.0056,21.9451 66.5,24.5C 69.2628,16.9397 66.5961,14.6064 58.5,17.5C 58.5,16.5 58.5,15.5 58.5,14.5C 60.1667,14.5 61.8333,14.5 63.5,14.5 Z"/></g>
<g><path style="opacity:1" fill="#544847" d="M 85.5,21.5 C 82.1858,20.2926 78.8525,20.2926 75.5,21.5C 76.9461,20.0598 78.7794,19.3932 81,19.5C 83.0081,19.3068 84.5081,19.9735 85.5,21.5 Z"/></g>
<g><path style="opacity:1" fill="#666470" d="M 85.5,21.5 C 86.9468,22.1342 87.6134,23.3009 87.5,25C 86.1015,29.8967 83.1015,33.3967 78.5,35.5C 81.732,32.4341 84.3987,28.9341 86.5,25C 86.0109,23.8615 85.6775,22.6948 85.5,21.5 Z"/></g>
<g><path style="opacity:1" fill="#faf9f6" d="M 66.5,24.5 C 64.2729,25.4006 63.2729,27.0672 63.5,29.5C 66.8784,30.1089 68.8784,28.7756 69.5,25.5C 71.7772,24.5514 73.7772,23.2181 75.5,21.5C 78.8525,20.2926 82.1858,20.2926 85.5,21.5C 85.6775,22.6948 86.0109,23.8615 86.5,25C 84.3987,28.9341 81.732,32.4341 78.5,35.5C 77.1667,36.1667 77.1667,36.8333 78.5,37.5C 79.2295,42.1304 79.5628,46.7971 79.5,51.5C 77.66,53.168 75.66,54.668 73.5,56C 74.949,57.1022 76.2823,58.2689 77.5,59.5C 78.6176,64.1469 78.6176,68.8136 77.5,73.5C 76.0937,73.9731 75.427,74.9731 75.5,76.5C 73.4752,78.1964 71.4752,79.863 69.5,81.5C 63.3687,81.3793 57.3687,82.046 51.5,83.5C 49.8036,81.4752 48.137,79.4752 46.5,77.5C 46.2641,74.3915 46.5975,71.3915 47.5,68.5C 49.8568,68.6633 52.1902,68.4966 54.5,68C 55.056,67.6174 55.3893,67.1174 55.5,66.5C 58.6741,66.0478 59.0075,65.0478 56.5,63.5C 52.2704,65.0451 48.4371,64.3785 45,61.5C 44.6826,58.793 45.5159,56.4597 47.5,54.5C 50.8394,54.1103 54.1727,53.6103 57.5,53C 53.4517,52.6958 49.4517,52.1958 45.5,51.5C 45.6107,50.8826 45.944,50.3826 46.5,50C 44.5135,47.5301 44.0135,44.6967 45,41.5C 46.0175,37.7561 47.1841,34.0895 48.5,30.5C 51.0986,25.5722 54.432,21.2389 58.5,17.5C 66.5961,14.6064 69.2628,16.9397 66.5,24.5 Z"/></g>
<g><path style="opacity:1" fill="#f0bebc" d="M 79.5,23.5 C 82.6802,23.1762 83.8469,24.5096 83,27.5C 80.5125,30.8181 77.3458,32.6514 73.5,33C 72.2351,31.6626 71.7351,30.1626 72,28.5C 74.4795,26.6859 76.9795,25.0192 79.5,23.5 Z"/></g>
<g><path style="opacity:1" fill="#ecbebb" d="M 61.5,19.5 C 64.8384,20.1935 65.3384,21.8601 63,24.5C 59.6104,28.7963 57.6104,28.4629 57,23.5C 58.3968,21.9297 59.8968,20.5964 61.5,19.5 Z"/></g>
<g><path style="opacity:1" fill="#696162" d="M 66.5,24.5 C 64.1396,29.4862 65.1396,29.8195 69.5,25.5C 68.8784,28.7756 66.8784,30.1089 63.5,29.5C 63.2729,27.0672 64.2729,25.4006 66.5,24.5 Z"/></g>
<g><path style="opacity:1" fill="#9a918d" d="M 35.5,37.5 C 32.4867,37.1072 29.8201,37.7739 27.5,39.5C 27.5,38.1667 27.5,36.8333 27.5,35.5C 30.5533,35.1107 33.22,35.7773 35.5,37.5 Z"/></g>
<g><path style="opacity:1" fill="#7f7161" d="M 48.5,30.5 C 47.1841,34.0895 46.0175,37.7561 45,41.5C 44.0135,44.6967 44.5135,47.5301 46.5,50C 45.944,50.3826 45.6107,50.8826 45.5,51.5C 43.5397,48.3735 41.8731,45.0401 40.5,41.5C 41.4959,41.4142 42.3292,41.7476 43,42.5C 44.5489,39.6883 45.3822,36.6883 45.5,33.5C 46.2719,32.3065 47.2719,31.3065 48.5,30.5 Z"/></g>
<g><path style="opacity:1" fill="#50525d" d="M 78.5,37.5 C 79.2216,37.9175 79.7216,38.5842 80,39.5C 80.4988,43.4862 80.6655,47.4862 80.5,51.5C 80.1667,51.5 79.8333,51.5 79.5,51.5C 79.5628,46.7971 79.2295,42.1304 78.5,37.5 Z"/></g>
<g><path style="opacity:1" fill="#837055" d="M 27.5,39.5 C 26.3359,43.6589 25.0026,47.6589 23.5,51.5C 23.4703,46.9215 24.8037,42.9215 27.5,39.5 Z"/></g>
<g><path style="opacity:1" fill="#bbd0f1" d="M 99.5,44.5 C 99.5,62.8333 99.5,81.1667 99.5,99.5C 90.1667,99.5 80.8333,99.5 71.5,99.5C 71.5,98.1667 71.5,96.8333 71.5,95.5C 70.448,95.6495 69.448,95.4828 68.5,95C 69.8721,93.7581 70.8721,92.2581 71.5,90.5C 63.4148,86.7626 64.0815,84.9293 73.5,85C 72.6634,83.9887 72.33,82.8221 72.5,81.5C 73.8333,81.5 75.1667,81.5 76.5,81.5C 76.5,80.5 76.5,79.5 76.5,78.5C 80.1431,79.4027 83.6431,80.7361 87,82.5C 88.1762,88.642 87.0096,89.142 83.5,84C 82.552,83.5172 81.552,83.3505 80.5,83.5C 78.3134,88.7855 79.9801,91.6188 85.5,92C 86.5955,90.3247 88.0955,89.158 90,88.5C 92.1383,85.854 91.805,83.5207 89,81.5C 88.3333,80.1667 88.3333,78.8333 89,77.5C 90.692,79.2446 92.5253,79.5779 94.5,78.5C 92.3436,76.9907 90.0103,75.9907 87.5,75.5C 87.762,76.9778 87.4287,78.3112 86.5,79.5C 85.0878,78.1936 83.4211,77.3603 81.5,77C 82.938,76.7811 84.2713,76.2811 85.5,75.5C 86.6251,72.5397 87.6251,69.5397 88.5,66.5C 89.1667,66.1667 89.8333,65.8333 90.5,65.5C 91.2621,66.6283 91.9288,67.7949 92.5,69C 93.635,69.7494 94.635,69.5827 95.5,68.5C 93.9951,67.1585 93.3285,65.4918 93.5,63.5C 90.8559,63.1601 88.5225,63.8267 86.5,65.5C 84.6675,64.7515 83.0009,63.7515 81.5,62.5C 80.8328,59.0227 80.1661,55.6893 79.5,52.5C 79.5,52.1667 79.5,51.8333 79.5,51.5C 79.8333,51.5 80.1667,51.5 80.5,51.5C 81.1665,46.3187 81.8332,40.9853 82.5,35.5C 84.306,34.1413 85.806,34.4746 87,36.5C 91.1161,35.3845 93.4494,32.7178 94,28.5C 94.8699,29.1079 95.3699,29.9412 95.5,31C 94.8505,32.6895 94.8505,34.5229 95.5,36.5C 91.9319,36.7593 90.5985,38.7593 91.5,42.5C 94.4206,42.2826 97.0872,42.9493 99.5,44.5 Z"/></g>
<g><path style="opacity:1" fill="#f9da81" d="M 35.5,37.5 C 37.1541,38.7503 38.8207,40.0837 40.5,41.5C 41.8731,45.0401 43.5397,48.3735 45.5,51.5C 46.1667,52.5 46.8333,53.5 47.5,54.5C 43.9509,55.9567 42.7842,58.6234 44,62.5C 44.9025,63.7014 46.0692,64.5348 47.5,65C 50.3647,65.1829 53.0314,65.6829 55.5,66.5C 53.4816,67.6225 51.4816,67.6225 49.5,66.5C 48.4777,66.8555 47.811,67.5222 47.5,68.5C 46.5975,71.3915 46.2641,74.3915 46.5,77.5C 46.5299,78.4972 46.0299,79.1639 45,79.5C 43.2341,78.7665 41.4008,78.4332 39.5,78.5C 38.391,78.4431 37.391,78.1098 36.5,77.5C 35.0937,77.9731 34.427,78.9731 34.5,80.5C 33.1667,81.1667 32.1667,82.1667 31.5,83.5C 29.9731,83.427 28.9731,84.0937 28.5,85.5C 26.3792,85.6747 24.3792,85.3414 22.5,84.5C 22.4431,83.391 22.1098,82.391 21.5,81.5C 22.0803,77.351 21.4136,73.6843 19.5,70.5C 17.326,70.2503 15.6594,69.2503 14.5,67.5C 13.5,65.8333 12.1667,64.5 10.5,63.5C 10.8333,62.1667 11.1667,60.8333 11.5,59.5C 13.3885,58.396 15.0552,57.0627 16.5,55.5C 19.3311,54.9213 21.6644,53.588 23.5,51.5C 25.0026,47.6589 26.3359,43.6589 27.5,39.5C 29.8201,37.7739 32.4867,37.1072 35.5,37.5 Z"/></g>
<g><path style="opacity:1" fill="#726141" d="M 23.5,51.5 C 21.6644,53.588 19.3311,54.9213 16.5,55.5C 17.3065,54.2719 18.3065,53.2719 19.5,52.5C 20.8333,52.1667 22.1667,51.8333 23.5,51.5 Z"/></g>
<g><path style="opacity:1" fill="#756957" d="M 45.5,51.5 C 49.4517,52.1958 53.4517,52.6958 57.5,53C 54.1727,53.6103 50.8394,54.1103 47.5,54.5C 46.8333,53.5 46.1667,52.5 45.5,51.5 Z"/></g>
<g><path style="opacity:1" fill="#8d8785" d="M 79.5,51.5 C 79.5,51.8333 79.5,52.1667 79.5,52.5C 77.8325,54.4786 77.1658,56.812 77.5,59.5C 76.2823,58.2689 74.949,57.1022 73.5,56C 75.66,54.668 77.66,53.168 79.5,51.5 Z"/></g>
<g><path style="opacity:1" fill="#675743" d="M 11.5,59.5 C 11.1667,60.8333 10.8333,62.1667 10.5,63.5C 9.14719,61.8716 9.48052,60.5383 11.5,59.5 Z"/></g>
<g><path style="opacity:1" fill="#79633f" d="M 47.5,54.5 C 45.5159,56.4597 44.6826,58.793 45,61.5C 48.4371,64.3785 52.2704,65.0451 56.5,63.5C 59.0075,65.0478 58.6741,66.0478 55.5,66.5C 53.0314,65.6829 50.3647,65.1829 47.5,65C 46.0692,64.5348 44.9025,63.7014 44,62.5C 42.7842,58.6234 43.9509,55.9567 47.5,54.5 Z"/></g>
<g><path style="opacity:1" fill="#706145" d="M 10.5,63.5 C 12.1667,64.5 13.5,65.8333 14.5,67.5C 12.1667,67.1667 10.8333,65.8333 10.5,63.5 Z"/></g>
<g><path style="opacity:1" fill="#625c59" d="M 77.5,59.5 C 78.9313,60.7804 79.5979,62.4471 79.5,64.5C 83.0753,64.4524 85.4086,66.119 86.5,69.5C 86.1852,71.483 85.1852,72.8163 83.5,73.5C 85.4714,69.6639 84.4714,66.9972 80.5,65.5C 79.92,68.447 78.92,71.1137 77.5,73.5C 78.6176,68.8136 78.6176,64.1469 77.5,59.5 Z"/></g>
<g><path style="opacity:1" fill="#756438" d="M 55.5,66.5 C 55.3893,67.1174 55.056,67.6174 54.5,68C 52.1902,68.4966 49.8568,68.6633 47.5,68.5C 47.811,67.5222 48.4777,66.8555 49.5,66.5C 51.4816,67.6225 53.4816,67.6225 55.5,66.5 Z"/></g>
<g><path style="opacity:1" fill="#f9f7f5" d="M 83.5,73.5 C 81.9505,74.4408 80.2838,75.1075 78.5,75.5C 78.1667,74.8333 77.8333,74.1667 77.5,73.5C 78.92,71.1137 79.92,68.447 80.5,65.5C 84.4714,66.9972 85.4714,69.6639 83.5,73.5 Z"/></g>
<g><path style="opacity:1" fill="#4a4a4c" d="M 77.5,73.5 C 77.8333,74.1667 78.1667,74.8333 78.5,75.5C 77.391,75.5569 76.391,75.8902 75.5,76.5C 75.427,74.9731 76.0937,73.9731 77.5,73.5 Z"/></g>
<g><path style="opacity:1" fill="#bfd0eb" d="M 19.5,52.5 C 18.3065,53.2719 17.3065,54.2719 16.5,55.5C 15.0552,57.0627 13.3885,58.396 11.5,59.5C 9.48052,60.5383 9.14719,61.8716 10.5,63.5C 10.8333,65.8333 12.1667,67.1667 14.5,67.5C 15.6594,69.2503 17.326,70.2503 19.5,70.5C 20.1031,74.2728 20.7698,77.9394 21.5,81.5C 22.1098,82.391 22.4431,83.391 22.5,84.5C 22.5,85.1667 22.5,85.8333 22.5,86.5C 21.3994,87.8484 20.3994,89.3484 19.5,91C 16.0848,91.2098 15.0848,92.7098 16.5,95.5C 15.1761,96.0059 14.5094,97.3392 14.5,99.5C 9.5,99.5 4.5,99.5 -0.5,99.5C -0.5,88.1667 -0.5,76.8333 -0.5,65.5C 2.66718,65.8336 5.66718,65.8336 8.5,65.5C 8.5,63.5 8.5,61.5 8.5,59.5C 6.40115,60.2309 4.40115,60.2309 2.5,59.5C 2.83333,57.8333 3.83333,56.8333 5.5,56.5C 7.33366,57.7545 9.33366,58.4211 11.5,58.5C 11.238,57.0222 11.5713,55.6888 12.5,54.5C 13.1924,55.0253 13.6924,55.6919 14,56.5C 14.3108,54.444 14.8108,52.444 15.5,50.5C 12.3839,46.399 13.3839,44.0657 18.5,43.5C 18.1729,45.4878 17.8396,47.4878 17.5,49.5C 17.6399,51.0296 18.3065,52.0296 19.5,52.5 Z"/></g>
<g><path style="opacity:1" fill="#473926" d="M 19.5,70.5 C 21.4136,73.6843 22.0803,77.351 21.5,81.5C 20.7698,77.9394 20.1031,74.2728 19.5,70.5 Z"/></g>
<g><path style="opacity:1" fill="#705b36" d="M 36.5,77.5 C 36.573,79.0269 35.9063,80.0269 34.5,80.5C 34.427,78.9731 35.0937,77.9731 36.5,77.5 Z"/></g>
<g><path style="opacity:1" fill="#615434" d="M 31.5,83.5 C 31.0269,84.9063 30.0269,85.573 28.5,85.5C 28.9731,84.0937 29.9731,83.427 31.5,83.5 Z"/></g>
<g><path style="opacity:1" fill="#85755c" d="M 22.5,84.5 C 24.3792,85.3414 26.3792,85.6747 28.5,85.5C 27.8333,86.1667 27.1667,86.8333 26.5,87.5C 25.1667,87.1667 23.8333,86.8333 22.5,86.5C 22.5,85.8333 22.5,85.1667 22.5,84.5 Z"/></g>
<g><path style="opacity:1" fill="#bed0ef" d="M 51.5,99.5 C 39.1667,99.5 26.8333,99.5 14.5,99.5C 14.5094,97.3392 15.1761,96.0059 16.5,95.5C 15.0848,92.7098 16.0848,91.2098 19.5,91C 20.3994,89.3484 21.3994,87.8484 22.5,86.5C 23.8333,86.8333 25.1667,87.1667 26.5,87.5C 28.3084,87.5086 29.9751,87.0086 31.5,86C 36.1662,79.5976 37.8329,80.0976 36.5,87.5C 37.5,87.5 38.5,87.5 39.5,87.5C 39.3398,85.8008 39.5065,84.1341 40,82.5C 40.7175,81.5494 41.5509,81.3828 42.5,82C 42.964,84.405 43.1307,86.905 43,89.5C 45.5259,92.1456 48.3592,93.479 51.5,93.5C 48.9244,94.8834 49.2577,95.7167 52.5,96C 51.6634,97.0113 51.33,98.1779 51.5,99.5 Z"/></g>
<g><path style="opacity:1" fill="#c4d0e9" d="M 79.5,52.5 C 80.1661,55.6893 80.8328,59.0227 81.5,62.5C 83.0009,63.7515 84.6675,64.7515 86.5,65.5C 88.5225,63.8267 90.8559,63.1601 93.5,63.5C 93.3285,65.4918 93.9951,67.1585 95.5,68.5C 94.635,69.5827 93.635,69.7494 92.5,69C 91.9288,67.7949 91.2621,66.6283 90.5,65.5C 89.8333,65.8333 89.1667,66.1667 88.5,66.5C 87.6251,69.5397 86.6251,72.5397 85.5,75.5C 84.2713,76.2811 82.938,76.7811 81.5,77C 83.4211,77.3603 85.0878,78.1936 86.5,79.5C 87.4287,78.3112 87.762,76.9778 87.5,75.5C 90.0103,75.9907 92.3436,76.9907 94.5,78.5C 92.5253,79.5779 90.692,79.2446 89,77.5C 88.3333,78.8333 88.3333,80.1667 89,81.5C 91.805,83.5207 92.1383,85.854 90,88.5C 88.0955,89.158 86.5955,90.3247 85.5,92C 79.9801,91.6188 78.3134,88.7855 80.5,83.5C 81.552,83.3505 82.552,83.5172 83.5,84C 87.0096,89.142 88.1762,88.642 87,82.5C 83.6431,80.7361 80.1431,79.4027 76.5,78.5C 76.5,79.5 76.5,80.5 76.5,81.5C 75.1667,81.5 73.8333,81.5 72.5,81.5C 72.33,82.8221 72.6634,83.9887 73.5,85C 64.0815,84.9293 63.4148,86.7626 71.5,90.5C 70.8721,92.2581 69.8721,93.7581 68.5,95C 69.448,95.4828 70.448,95.6495 71.5,95.5C 71.5,96.8333 71.5,98.1667 71.5,99.5C 64.8333,99.5 58.1667,99.5 51.5,99.5C 51.33,98.1779 51.6634,97.0113 52.5,96C 49.2577,95.7167 48.9244,94.8834 51.5,93.5C 48.3592,93.479 45.5259,92.1456 43,89.5C 43.1307,86.905 42.964,84.405 42.5,82C 41.5509,81.3828 40.7175,81.5494 40,82.5C 39.5065,84.1341 39.3398,85.8008 39.5,87.5C 38.5,87.5 37.5,87.5 36.5,87.5C 37.8329,80.0976 36.1662,79.5976 31.5,86C 29.9751,87.0086 28.3084,87.5086 26.5,87.5C 27.1667,86.8333 27.8333,86.1667 28.5,85.5C 30.0269,85.573 31.0269,84.9063 31.5,83.5C 32.1667,82.1667 33.1667,81.1667 34.5,80.5C 35.9063,80.0269 36.573,79.0269 36.5,77.5C 37.391,78.1098 38.391,78.4431 39.5,78.5C 43.3365,80.4647 47.3365,82.1314 51.5,83.5C 52.3739,84.5251 53.5405,85.1918 55,85.5C 59.9954,84.2798 64.8288,82.9465 69.5,81.5C 71.4752,79.863 73.4752,78.1964 75.5,76.5C 76.391,75.8902 77.391,75.5569 78.5,75.5C 80.2838,75.1075 81.9505,74.4408 83.5,73.5C 85.1852,72.8163 86.1852,71.483 86.5,69.5C 85.4086,66.119 83.0753,64.4524 79.5,64.5C 79.5979,62.4471 78.9313,60.7804 77.5,59.5C 77.1658,56.812 77.8325,54.4786 79.5,52.5 Z"/></g>
<g><path style="opacity:1" fill="#8a858b" d="M 69.5,81.5 C 64.8288,82.9465 59.9954,84.2798 55,85.5C 53.5405,85.1918 52.3739,84.5251 51.5,83.5C 57.3687,82.046 63.3687,81.3793 69.5,81.5 Z"/></g>
<g><path style="opacity:1" fill="#7c705a" d="M 46.5,77.5 C 48.137,79.4752 49.8036,81.4752 51.5,83.5C 47.3365,82.1314 43.3365,80.4647 39.5,78.5C 41.4008,78.4332 43.2341,78.7665 45,79.5C 46.0299,79.1639 46.5299,78.4972 46.5,77.5 Z"/></g>
</svg>
